<svg width="25" height="24" viewBox="0 0 25 24" fill="none" xmlns="http://www.w3.org/2000/svg">
<path d="M16.28 2H8.72C4.94 2 4 3.01 4 7.04V18.3C4 20.96 5.46 21.59 7.23 19.69L7.24 19.68C8.06 18.81 9.31 18.88 10.02 19.83L11.03 21.18C11.84 22.25 13.15 22.25 13.96 21.18L14.97 19.83C15.69 18.87 16.94 18.8 17.76 19.68C19.54 21.58 20.99 20.95 20.99 18.29V7.04C21 3.01 20.06 2 16.28 2ZM15.5 11.75H9.5C9.09 11.75 8.75 11.41 8.75 11C8.75 10.59 9.09 10.25 9.5 10.25H15.5C15.91 10.25 16.25 10.59 16.25 11C16.25 11.41 15.91 11.75 15.5 11.75ZM16.5 7.75H8.5C8.09 7.75 7.75 7.41 7.75 7C7.75 6.59 8.09 6.25 8.5 6.25H16.5C16.91 6.25 17.25 6.59 17.25 7C17.25 7.41 16.91 7.75 16.5 7.75Z" fill="#DC0023"/>
</svg>
